HIERARCHY
ROOT SpineBase
{
  OFFSET 0.000000 0.000000 0.000000
  CHANNELS 6 Xposition Yposition Zposition Zrotation Xrotation Yrotation
  JOINT SpineMid
  {
    OFFSET 0.000000 31.649919 0.000000
    CHANNELS 3 Zrotation Xrotation Yrotation
    JOINT SpineShoulder
    {
      OFFSET 0.181158 23.453839 -0.809687
      CHANNELS 3 Zrotation Xrotation Yrotation
      JOINT Neck
      {
        OFFSET 0.130661 7.743627 -0.608590
        CHANNELS 3 Zrotation Xrotation Yrotation
        JOINT Head
        {
          OFFSET -5.171480 14.134972 -2.436547
          CHANNELS 3 Zrotation Xrotation Yrotation
          End Site
          {
            OFFSET 0 0 0
          }
        }
      }
      JOINT ShoulderLeft
      {
        OFFSET -17.275994 -5.150569 6.294731
        CHANNELS 3 Zrotation Xrotation Yrotation
        JOINT ElbowLeft
        {
          OFFSET -1.476764 -21.124456 1.563438
          CHANNELS 3 Zrotation Xrotation Yrotation
          JOINT WristLeft
          {
            OFFSET 16.007994 -6.617556 -22.670492
            CHANNELS 3 Zrotation Xrotation Yrotation
            JOINT HandLeft
            {
              OFFSET 3.013575 -6.147801 -3.166509
              CHANNELS 3 Zrotation Xrotation Yrotation
              JOINT HandTipLeft
              {
                OFFSET 1.668635 -3.516255 -1.377200
                CHANNELS 3 Zrotation Xrotation Yrotation
                End Site
                {
                  OFFSET 0 0 0
                }
              }
              JOINT ThumbLeft
              {
                OFFSET -2.753642 4.255676 -7.766088
                CHANNELS 3 Zrotation Xrotation Yrotation
                End Site
                {
                  OFFSET 0 0 0
                }
              }
            }
          }
        }
      }
      JOINT ShoulderRight
      {
        OFFSET 15.382114 -2.897550 -7.441491
        CHANNELS 3 Zrotation Xrotation Yrotation
        JOINT ElbowRight
        {
          OFFSET 8.728190 -22.740705 -2.101603
          CHANNELS 3 Zrotation Xrotation Yrotation
          JOINT WristRight
          {
            OFFSET -24.045857 -8.061374 -11.700871
            CHANNELS 3 Zrotation Xrotation Yrotation
            JOINT HandRight
            {
              OFFSET -7.615069 -0.997454 -1.006572
              CHANNELS 3 Zrotation Xrotation Yrotation
              JOINT HandTipRight
              {
                OFFSET -7.922285 -1.697069 -0.522914
                CHANNELS 3 Zrotation Xrotation Yrotation
                End Site
                {
                  OFFSET 0 0 0
                }
              }
              JOINT ThumbRight
              {
                OFFSET 1.582778 -2.103211 2.999395
                CHANNELS 3 Zrotation Xrotation Yrotation
                End Site
                {
                  OFFSET 0 0 0
                }
              }
            }
          }
        }
      }
    }
  }
  JOINT HipLeft
  {
    OFFSET -6.075841 0.022122 -1.494778
    CHANNELS 3 Zrotation Xrotation Yrotation
    JOINT KneeLeft
    {
      OFFSET -0.293202 -35.893198 4.647016
      CHANNELS 3 Zrotation Xrotation Yrotation
      JOINT AnkleLeft
      {
        OFFSET 2.631636 -35.229050 7.708707
        CHANNELS 3 Zrotation Xrotation Yrotation
        JOINT FootLeft
        {
          OFFSET -0.827194 -8.049712 -6.000880
          CHANNELS 3 Zrotation Xrotation Yrotation
          End Site
          {
            OFFSET 0 0 0
          }
        }
      }
    }
  }
  JOINT HipRight
  {
    OFFSET 7.520489 1.800681 -5.787299
    CHANNELS 3 Zrotation Xrotation Yrotation
    JOINT KneeRight
    {
      OFFSET 6.813336 -34.668777 -1.188582
      CHANNELS 3 Zrotation Xrotation Yrotation
      JOINT AnkleRight
      {
        OFFSET 1.924256 -38.225044 7.101054
        CHANNELS 3 Zrotation Xrotation Yrotation
        JOINT FootRight
        {
          OFFSET -2.092099 -8.235555 -4.727034
          CHANNELS 3 Zrotation Xrotation Yrotation
          End Site
          {
            OFFSET 0 0 0
          }
        }
      }
    }
  }
}
MOTION
Frames: 16
Frame Time: 0.033333
-60.371316 80.432592 306.602818 -0.000000 0.000000 17.521522 -0.000000 0.000000 -17.521522 -0.000000 0.000000 0.000000 -0.000000 0.000000 0.000000 0.000000 0.000000 0.000000 -0.000000 0.000000 0.000000 -0.000000 0.000000 0.000000 -0.000000 0.000000 0.000000 -0.000000 0.000000 0.000000 0.000000 0.000000 0.000000 0.000000 0.000000 0.000000 -0.000000 0.000000 0.000000 -0.000000 0.000000 0.000000 -0.000000 0.000000 0.000000 -0.000000 0.000000 0.000000 0.000000 0.000000 0.000000 0.000000 0.000000 0.000000 -0.000000 0.000000 -17.521522 -0.000000 0.000000 0.000000 -0.000000 0.000000 0.000000 0.000000 0.000000 0.000000 -0.000000 0.000000 -17.521522 -0.000000 0.000000 0.000000 -0.000000 0.000000 0.000000 0.000000 0.000000 0.000000
-60.331053 80.432822 306.456078 -0.015997 -0.047988 17.759900 0.029873 0.040822 -17.759917 -0.000000 0.000000 0.000000 -0.000000 0.000000 0.000000 0.000000 0.000000 0.000000 -0.544045 -1.231861 0.039961 0.545030 1.231425 -0.051667 -0.000000 0.000000 0.000000 3.735731 -8.026346 -5.074257 0.000000 0.000000 0.000000 0.000000 0.000000 0.000000 -0.000000 0.000000 0.000000 -0.410347 -0.288300 1.444305 0.652290 0.435868 -2.952743 2.311208 -0.654495 3.528535 0.000000 0.000000 0.000000 0.000000 0.000000 0.000000 0.029873 0.040822 -17.759917 -0.000000 0.000000 0.000000 -0.007438 0.847228 -0.081016 0.000000 0.000000 0.000000 0.029873 0.040822 -17.759917 -0.000000 0.000000 0.000000 -1.043439 5.835741 -0.806173 0.000000 0.000000 0.000000
-60.295733 80.432780 306.313727 -0.028986 -0.096428 17.942607 0.057282 0.082809 -17.942673 -0.000000 0.000000 0.000000 -0.000000 0.000000 0.000000 0.000000 0.000000 0.000000 -0.979534 -2.191791 0.061881 0.982618 2.190411 -0.099405 -0.000000 0.000000 0.000000 6.297323 -13.259344 -8.202218 0.000000 0.000000 0.000000 0.000000 0.000000 0.000000 -0.748985 1.131923 0.511893 0.015335 -1.666733 2.091550 1.191358 0.815895 -5.687091 4.026331 -1.035043 6.696914 0.000000 0.000000 0.000000 0.000000 0.000000 0.000000 0.057282 0.082809 -17.942673 -0.000000 0.000000 0.000000 -0.038497 1.536428 -0.127401 0.000000 0.000000 0.000000 0.057282 0.082809 -17.942673 -0.000000 0.000000 0.000000 -1.815420 10.131240 -1.305612 0.000000 0.000000 0.000000
-60.265355 80.432465 306.175765 -0.038963 -0.145309 18.069206 0.082112 0.126058 -18.069346 -0.000000 0.000000 0.000000 -0.000000 0.000000 0.000000 0.000000 0.000000 0.000000 -1.306922 -2.880029 0.071603 1.312173 2.877641 -0.137418 -0.501290 0.541982 0.526086 8.674591 -16.490128 -10.310294 0.000000 0.000000 0.000000 0.000000 0.000000 0.000000 -1.030744 1.516495 0.692522 0.075969 -2.250568 2.783929 1.582361 1.144333 -8.097133 5.255659 -1.242474 9.464135 0.000000 0.000000 0.000000 0.000000 0.000000 0.000000 0.082112 0.126058 -18.069346 -0.000000 0.000000 0.000000 -0.093791 2.071118 -0.139349 0.000000 0.000000 0.000000 0.082112 0.126058 -18.069346 -0.000000 0.000000 0.000000 -2.377520 12.978665 -1.565306 0.000000 0.000000 0.000000
-60.239918 80.431878 306.042191 -0.045928 -0.194621 18.139314 0.104237 0.170650 -18.139547 -0.000000 0.000000 0.000000 -0.000000 0.000000 0.000000 0.000000 0.000000 0.000000 -1.527170 -3.298968 0.073448 1.533933 3.295831 -0.161562 -0.534234 0.453907 0.499903 10.532375 -16.405383 -10.664256 0.000000 0.000000 0.000000 0.000000 0.000000 0.000000 -1.248974 1.780889 0.820667 0.171821 -2.662976 3.242196 1.786242 1.422643 -10.035993 6.091197 -1.354424 11.735958 0.000000 0.000000 0.000000 0.000000 0.000000 0.000000 0.104237 0.170650 -18.139547 -0.000000 0.000000 0.000000 -0.173776 2.454084 -0.117066 0.000000 0.000000 0.000000 0.104237 0.170650 -18.139547 -0.000000 0.000000 0.000000 -2.767786 14.480492 -1.628689 0.000000 0.000000 0.000000
-60.219423 80.431018 305.913007 -0.049879 -0.244353 18.152599 0.123525 0.216652 -18.152939 -0.000000 0.000000 0.000000 -0.000000 0.000000 0.000000 0.000000 0.000000 0.000000 -1.641686 -3.452514 0.070212 1.648901 3.449078 -0.169341 -0.000000 0.000000 0.000000 11.909331 -12.639286 -9.302497 0.000000 0.000000 0.000000 0.000000 0.000000 0.000000 -1.402843 1.925550 0.895147 0.302657 -2.901886 3.467321 1.766600 1.647464 -11.333510 6.600578 -1.429634 13.381159 0.000000 0.000000 0.000000 0.000000 0.000000 0.000000 0.123525 0.216652 -18.152939 -0.000000 0.000000 0.000000 -0.278765 2.687299 -0.060769 0.000000 0.000000 0.000000 0.123525 0.216652 -18.152939 -0.000000 0.000000 0.000000 -3.004287 14.699533 -1.519658 0.000000 0.000000 0.000000
-60.204309 80.428288 305.777924 -0.047715 -0.296561 18.054149 0.137276 0.267171 -18.054593 -0.000000 0.000000 0.000000 -0.000000 0.000000 0.000000 0.000000 0.000000 0.000000 -1.571325 -3.069630 0.056070 1.576586 3.066933 -0.140384 -0.000000 0.000000 0.000000 16.169515 -7.621720 -8.543834 0.000000 0.000000 0.000000 0.000000 0.000000 0.000000 -1.546605 1.895765 0.899483 0.573252 -2.893413 3.356827 1.826378 1.757310 -12.237763 6.155727 -1.500140 14.596980 0.000000 0.000000 0.000000 0.000000 0.000000 0.000000 -0.188860 -0.532255 -18.056379 0.062303 0.861141 0.000564 -0.422615 2.400444 0.075983 0.000000 0.000000 0.000000 0.137276 0.267171 -18.054593 -0.000000 0.000000 0.000000 -3.282012 13.241264 -1.036754 0.000000 0.000000 0.000000
-60.206372 80.424529 305.685036 -0.044415 -0.335169 17.986803 0.145745 0.305073 -17.987321 -0.000000 0.000000 0.000000 -0.000000 0.000000 0.000000 0.000000 0.000000 0.000000 -1.402566 -2.493767 0.039923 1.405632 2.492041 -0.101027 -0.000000 0.000000 0.000000 14.811644 10.037530 -2.158593 0.000000 0.000000 0.000000 0.000000 0.000000 0.000000 -1.577141 1.766948 0.851586 0.781210 -2.742838 3.108953 1.815337 1.538322 -10.610445 6.832771 -1.461830 13.957273 0.000000 0.000000 0.000000 0.000000 0.000000 0.000000 -0.164727 -0.579351 -17.983286 0.022258 0.937070 -0.004960 -0.444791 1.691322 0.162482 0.000000 0.000000 0.000000 0.145745 0.305073 -17.987321 -0.000000 0.000000 0.000000 -3.388045 10.430802 -0.379776 0.000000 0.000000 0.000000
-60.197480 80.425050 305.567391 -0.037276 -0.395168 17.805321 0.156329 0.364841 -17.805947 -0.000000 0.000000 0.000000 0.159259 0.790068 0.315631 0.000000 0.000000 0.000000 -1.240397 -2.007974 0.026788 1.242097 2.006923 -0.070283 0.207984 -1.468928 -0.829272 8.478416 22.244759 4.953091 0.000000 0.000000 0.000000 0.000000 0.000000 0.000000 -1.460459 1.573160 0.761615 0.870762 -2.444222 2.618835 1.093844 1.360906 -8.253209 5.483772 -1.421383 10.760825 0.000000 0.000000 0.000000 0.000000 0.000000 0.000000 -0.176430 -0.643077 -17.799207 0.008741 1.061389 -0.007629 -0.492662 1.836402 0.184159 0.000000 0.000000 0.000000 0.156329 0.364841 -17.805947 -0.000000 0.000000 0.000000 -2.885728 6.721750 0.112195 0.000000 0.000000 0.000000
-60.186670 80.427223 305.462063 -0.032583 -0.459910 17.638351 0.170411 0.428415 -17.639119 -0.000000 0.000000 0.000000 0.201565 1.008462 0.402291 0.000000 0.000000 0.000000 -1.120115 -1.714458 0.020163 1.121220 1.713736 -0.053693 0.136683 -2.256377 -1.185186 2.974764 35.496892 13.184939 0.000000 0.000000 0.000000 0.000000 0.000000 0.000000 -1.295425 1.307260 0.638359 0.981486 -2.090225 2.113634 -0.013444 1.255412 -5.941341 5.190619 -1.465963 8.893789 0.000000 0.000000 0.000000 0.000000 0.000000 0.000000 -0.180046 -0.679141 -17.630198 -0.001438 1.161677 -0.009674 -0.878911 2.499437 0.410510 0.000000 0.000000 0.000000 0.170411 0.428415 -17.639119 -0.000000 0.000000 0.000000 -1.964294 1.937645 0.659245 0.000000 0.000000 0.000000
-60.183593 80.424681 305.380499 -0.031953 -0.515435 17.547597 0.185874 0.481816 -17.548523 -0.000000 0.000000 0.000000 0.244328 1.260157 0.501050 0.000000 0.000000 0.000000 -0.997247 -1.350941 0.008866 0.997733 1.350582 -0.032384 -0.331823 -3.387206 -1.525052 7.051296 12.060317 1.860341 0.000000 0.000000 0.000000 0.000000 0.000000 0.000000 -1.157998 1.093083 0.539233 1.190083 -1.832177 1.606915 -1.429819 0.836486 -1.187212 4.122154 -0.926512 2.403069 0.000000 0.000000 0.000000 0.000000 0.000000 0.000000 -0.164702 -0.686178 -17.536886 -0.017647 1.219343 -0.012074 -1.567441 3.779111 0.810703 0.000000 0.000000 0.000000 0.185874 0.481816 -17.548523 -0.000000 0.000000 0.000000 -0.847800 -3.638395 1.407221 0.000000 0.000000 0.000000
-60.183654 80.423156 305.306299 -0.033586 -0.523747 17.507282 0.189592 0.489381 -17.508245 -0.000000 0.000000 0.000000 0.255687 1.501669 0.591009 0.000000 0.000000 0.000000 -0.844690 -0.896136 -0.006468 0.844692 0.896134 -0.006744 -0.605993 -5.029510 -2.237614 8.019907 5.156188 -1.431190 0.000000 0.000000 0.000000 0.000000 0.000000 0.000000 -1.044840 0.958171 0.474358 1.367707 -1.689543 1.241248 -2.860182 0.614335 1.777753 4.970256 -0.578575 -1.828466 0.000000 0.000000 0.000000 0.000000 0.000000 0.000000 -0.162882 -0.726836 -17.494803 -0.029438 1.265919 -0.013847 -2.173646 4.528877 1.203073 0.000000 0.000000 0.000000 0.189592 0.489381 -17.508245 -0.000000 0.000000 0.000000 -2.336689 0.743196 1.157410 0.000000 0.000000 0.000000
-60.195046 80.420164 305.269532 -0.046562 -0.498914 17.574401 0.195037 0.461567 -17.575390 -0.000000 0.000000 0.000000 0.237825 1.737727 0.674453 0.000000 0.000000 0.000000 -0.835569 -0.875409 -0.007019 0.835559 0.875419 -0.005748 -0.480537 -5.338632 -2.457416 7.990891 -2.913267 -4.709177 0.000000 0.000000 0.000000 0.000000 0.000000 0.000000 -0.925006 0.847319 0.418554 1.559787 -1.655434 1.088233 -4.571287 0.783865 2.516016 4.013380 -0.474940 -2.422579 0.000000 0.000000 0.000000 0.000000 0.000000 0.000000 -0.145229 -0.762057 -17.560097 -0.044755 1.269263 -0.015690 -2.727454 5.467199 1.542863 0.000000 0.000000 0.000000 0.034660 -0.325622 -17.735124 -0.087042 0.798631 0.160531 -2.976089 1.121971 1.435105 0.000000 0.000000 0.000000
-60.197077 80.413969 305.187083 -0.052328 -0.466402 17.497070 0.190138 0.429088 -17.497995 -0.000000 0.000000 0.000000 0.243811 1.974218 0.761852 0.000000 0.000000 0.000000 -0.833651 -0.851249 -0.008374 0.833618 0.851281 -0.004012 -0.827088 -6.002252 -2.642528 9.780259 -3.258653 -5.689681 0.000000 0.000000 0.000000 0.000000 0.000000 0.000000 -0.790865 0.771140 0.375149 1.413465 -1.533246 1.012271 -5.063395 0.822762 2.451078 4.425518 -0.569110 -2.212761 0.000000 0.000000 0.000000 0.000000 0.000000 0.000000 -0.153478 -0.827260 -17.482103 -0.049662 1.301542 -0.016522 -2.167404 4.765146 1.177334 0.000000 0.000000 0.000000 -0.002651 -0.380001 -17.663018 -0.061795 0.829442 0.165552 -3.623102 1.159327 1.797400 0.000000 0.000000 0.000000
-60.202929 80.409798 305.113385 -0.066695 -0.436629 17.435731 0.194464 0.396582 -17.436658 -0.000000 0.000000 0.000000 0.281382 2.187609 0.845605 0.000000 0.000000 0.000000 -0.885574 -0.986604 -0.004190 0.885633 0.986551 -0.011060 -0.838054 -6.269698 -2.778449 13.395191 -7.086693 -8.639781 0.000000 0.000000 0.000000 0.000000 0.000000 0.000000 -0.646515 0.707585 0.335860 1.184384 -1.478936 1.206595 -5.984515 1.355328 0.184534 5.780293 -1.147987 0.935092 0.000000 0.000000 0.000000 0.000000 0.000000 0.000000 -0.156903 -0.900353 -17.420346 -0.053012 1.342640 -0.017236 -2.270458 4.250283 1.301390 0.000000 0.000000 0.000000 -0.039630 -0.441495 -17.608664 0.337172 0.146039 0.200247 -4.423162 1.886253 2.067761 0.000000 0.000000 0.000000
-60.208364 80.410940 305.020113 -0.079583 -0.390145 17.354095 0.192334 0.348646 -17.354951 -0.000000 0.000000 0.000000 0.315153 2.372932 0.918428 0.000000 0.000000 0.000000 -0.938938 -1.155787 0.001835 0.939166 1.155602 -0.020777 -1.203161 -6.464979 -2.713040 18.204255 -5.985528 -10.086759 0.000000 0.000000 0.000000 0.000000 0.000000 0.000000 -0.528737 0.646905 0.300517 1.033395 -1.358050 1.108215 -7.301327 1.820833 -1.460731 6.396210 -1.420892 2.706468 0.000000 0.000000 0.000000 0.000000 0.000000 0.000000 -0.163003 -0.990550 -17.337852 -0.059880 1.384239 -0.018366 -2.276014 3.702401 1.354455 0.000000 0.000000 0.000000 -0.061444 -0.527495 -17.535272 0.355312 0.042362 0.202673 -4.531680 1.677809 2.222014 0.000000 0.000000 0.000000
